<svg width="424" height="42" viewBox="0 0 424 42" fill="none" xmlns="http://www.w3.org/2000/svg">
<path d="M12.72 42V36H6.72V30H0.720001V12H6.72V6H12.72V0H42.72V6H18.72V12H12.72V30H18.72V36H30.72V24H24.72V18H42.72V42H12.72ZM54.29 42V36H48.29V30H54.29V24H78.29V18H54.29V12H84.29V18H90.29V42H54.29ZM60.29 36H78.29V30H60.29V36ZM95.86 42V12H131.86V18H137.86V42H125.86V18H119.86V42H107.86V18H101.86V42H95.86ZM149.43 42V36H143.43V18H149.43V12H179.43V18H185.43V30H155.43V36H179.43V42H149.43ZM155.43 24H173.43V18H155.43V24ZM191 42V0H227V6H233V24H227V30H203V42H191ZM203 24H221V6H203V24ZM244.57 42V36H238.57V18H244.57V12H274.57V18H280.57V30H250.57V36H274.57V42H244.57ZM250.57 24H268.57V18H250.57V24ZM292.14 42V36H286.14V30H292.14V24H316.14V18H292.14V12H322.14V18H328.14V42H292.14ZM298.14 36H316.14V30H298.14V36ZM339.71 42V36H333.71V18H339.71V12H375.71V18H345.71V36H375.71V42H339.71ZM387.28 42V36H381.28V18H387.28V12H417.28V18H423.28V30H393.28V36H417.28V42H387.28ZM393.28 24H411.28V18H393.28V24Z" fill="#007AFF"/>
</svg>
